<?xml version="1.0" encoding="UTF-8" standalone="no"?>
<!DOCTYPE svg PUBLIC "-//W3C//DTD SVG 1.1//EN" "http://www.w3.org/Graphics/SVG/1.1/DTD/svg11.dtd">
<!-- Generated by graphviz version 2.40.1 (20161225.0304)
 -->
<!-- Title: default Pages: 1 -->
<svg width="1885pt" height="906pt" viewBox="0.00 0.00 1884.59 906.23" xmlns="http://www.w3.org/2000/svg" xmlns:xlink="http://www.w3.org/1999/xlink">
<g id="graph0" class="graph" transform="scale(1 1) rotate(0) translate(4 902.2332)">
<title>default</title>
<polygon fill="#ffffff" stroke="transparent" points="-4,4 -4,-902.2332 1880.5908,-902.2332 1880.5908,4 -4,4"/>
<!-- 0 -->
<g id="node1" class="node">
<title>0</title>
<ellipse fill="none" stroke="#000000" cx="925.6125" cy="-856.0868" rx="42.2932" ry="42.2932"/>
<text text-anchor="middle" x="925.6125" y="-851.8868" font-family="Times,serif" font-size="14.00" fill="#000000">start  #0</text>
</g>
<!-- 1 -->
<g id="node2" class="node">
<title>1</title>
<ellipse fill="none" stroke="#000000" cx="119.6125" cy="-641.5279" rx="115.7214" ry="115.7214"/>
<ellipse fill="none" stroke="#000000" cx="119.6125" cy="-641.5279" rx="119.7252" ry="119.7252"/>
<text text-anchor="middle" x="119.6125" y="-637.3279" font-family="Times,serif" font-size="14.00" fill="#000000">in_identifier  #1[Identifier]</text>
</g>
<!-- 0&#45;&gt;1 -->
<g id="edge1" class="edge">
<title>0-&gt;1</title>
<path fill="none" stroke="#000000" d="M883.2563,-852.7824C777.7843,-844.2795 505.6118,-820.5768 418.2015,-795.9404 382.604,-785.9074 375.7214,-777.6223 342.6125,-761.1404 306.8705,-743.3479 268.4021,-723.1141 233.6474,-704.4145"/>
<polygon fill="#000000" stroke="#000000" points="234.8868,-701.1065 224.4237,-699.4411 231.5645,-707.2679 234.8868,-701.1065"/>
<text text-anchor="middle" x="431.818" y="-783.3404" font-family="Times,serif" font-size="14.00" fill="#000000">[a-z]</text>
</g>
<!-- 0&#45;&gt;1 -->
<g id="edge2" class="edge">
<title>0-&gt;1</title>
<path fill="none" stroke="#000000" d="M883.7333,-849.6251C813.7468,-838.7878 668.6062,-816.1471 545.9715,-795.9404 540.3168,-795.0087 348.0326,-763.0024 342.6125,-761.1404 304.4048,-748.0147 264.8724,-728.8851 229.897,-709.7585"/>
<polygon fill="#000000" stroke="#000000" points="231.5518,-706.6742 221.1067,-704.8996 228.1654,-712.8005 231.5518,-706.6742"/>
<text text-anchor="middle" x="562.933" y="-783.3404" font-family="Times,serif" font-size="14.00" fill="#000000">[A-Z]</text>
</g>
<!-- 2 -->
<g id="node3" class="node">
<title>2</title>
<ellipse fill="none" stroke="#000000" cx="420.6125" cy="-641.5279" rx="65.4179" ry="65.4179"/>
<ellipse fill="none" stroke="#000000" cx="420.6125" cy="-641.5279" rx="69.4304" ry="69.4304"/>
<text text-anchor="middle" x="420.6125" y="-637.3279" font-family="Times,serif" font-size="14.00" fill="#000000">in_int  #2[Int]</text>
</g>
<!-- 0&#45;&gt;2 -->
<g id="edge3" class="edge">
<title>0-&gt;2</title>
<path fill="none" stroke="#000000" d="M883.4247,-852.8227C810.0925,-845.6335 656.191,-823.747 543.6125,-761.1404 516.9497,-746.3129 491.933,-724.2032 471.5132,-703.012"/>
<polygon fill="#000000" stroke="#000000" points="473.8964,-700.4379 464.487,-695.5682 468.8059,-705.2428 473.8964,-700.4379"/>
<text text-anchor="middle" x="625.6034" y="-783.3404" font-family="Times,serif" font-size="14.00" fill="#000000">[0-9]</text>
</g>
<!-- 5 -->
<g id="node6" class="node">
<title>5</title>
<ellipse fill="none" stroke="#000000" cx="617.6125" cy="-641.5279" rx="64.8719" ry="64.8719"/>
<text text-anchor="middle" x="617.6125" y="-637.3279" font-family="Times,serif" font-size="14.00" fill="#000000">in_string1  #5</text>
</g>
<!-- 0&#45;&gt;5 -->
<g id="edge4" class="edge">
<title>0-&gt;5</title>
<path fill="none" stroke="#000000" d="M886.3895,-839.8638C847.7959,-822.9994 788.0673,-794.4371 741.6125,-761.1404 715.5112,-742.4322 689.4931,-718.3778 668.0794,-696.7519"/>
<polygon fill="#000000" stroke="#000000" points="670.4974,-694.2187 661.0003,-689.5223 665.4958,-699.1161 670.4974,-694.2187"/>
<text text-anchor="middle" x="797.4678" y="-783.3404" font-family="Times,serif" font-size="14.00" fill="#000000">"</text>
</g>
<!-- 8 -->
<g id="node9" class="node">
<title>8</title>
<ellipse fill="none" stroke="#000000" cx="833.6125" cy="-641.5279" rx="79.2927" ry="79.2927"/>
<ellipse fill="none" stroke="#000000" cx="833.6125" cy="-641.5279" rx="83.2999" ry="83.2999"/>
<text text-anchor="middle" x="833.6125" y="-637.3279" font-family="Times,serif" font-size="14.00" fill="#000000">  #8[SugarToken]</text>
</g>
<!-- 0&#45;&gt;8 -->
<g id="edge5" class="edge">
<title>0-&gt;8</title>
<path fill="none" stroke="#000000" d="M908.952,-817.2318C898.2528,-792.2794 883.9191,-758.851 870.6269,-727.8515"/>
<polygon fill="#000000" stroke="#000000" points="873.6981,-726.1325 866.5404,-718.3211 867.2646,-728.8911 873.6981,-726.1325"/>
<text text-anchor="middle" x="909.7817" y="-783.3404" font-family="Times,serif" font-size="14.00" fill="#000000">[|] {</text>
</g>
<!-- 9 -->
<g id="node10" class="node">
<title>9</title>
<ellipse fill="none" stroke="#000000" cx="1017.6125" cy="-641.5279" rx="79.2927" ry="79.2927"/>
<ellipse fill="none" stroke="#000000" cx="1017.6125" cy="-641.5279" rx="83.2999" ry="83.2999"/>
<text text-anchor="middle" x="1017.6125" y="-637.3279" font-family="Times,serif" font-size="14.00" fill="#000000">  #9[SugarToken]</text>
</g>
<!-- 0&#45;&gt;9 -->
<g id="edge6" class="edge">
<title>0-&gt;9</title>
<path fill="none" stroke="#000000" d="M942.273,-817.2318C952.9723,-792.2794 967.306,-758.851 980.5981,-727.8515"/>
<polygon fill="#000000" stroke="#000000" points="983.9605,-728.8911 984.6846,-718.3211 977.527,-726.1325 983.9605,-728.8911"/>
<text text-anchor="middle" x="969.7817" y="-783.3404" font-family="Times,serif" font-size="14.00" fill="#000000">[|] }</text>
</g>
<!-- 10 -->
<g id="node11" class="node">
<title>10</title>
<ellipse fill="none" stroke="#000000" cx="1206.6125" cy="-641.5279" rx="83.9576" ry="83.9576"/>
<ellipse fill="none" stroke="#000000" cx="1206.6125" cy="-641.5279" rx="87.9566" ry="87.9566"/>
<text text-anchor="middle" x="1206.6125" y="-637.3279" font-family="Times,serif" font-size="14.00" fill="#000000">  #10[SugarToken]</text>
</g>
<!-- 0&#45;&gt;10 -->
<g id="edge7" class="edge">
<title>0-&gt;10</title>
<path fill="none" stroke="#000000" d="M965.3773,-841.2073C1004.6542,-825.2743 1065.135,-797.3211 1109.6125,-761.1404 1123.7874,-749.6097 1137.3072,-735.7107 1149.5114,-721.5296"/>
<polygon fill="#000000" stroke="#000000" points="1152.393,-723.5411 1156.1519,-713.6355 1147.0362,-719.035 1152.393,-723.5411"/>
<text text-anchor="middle" x="1092.7527" y="-783.3404" font-family="Times,serif" font-size="14.00" fill="#000000">[|] [</text>
</g>
<!-- 11 -->
<g id="node12" class="node">
<title>11</title>
<ellipse fill="none" stroke="#000000" cx="1400.6125" cy="-641.5279" rx="83.9576" ry="83.9576"/>
<ellipse fill="none" stroke="#000000" cx="1400.6125" cy="-641.5279" rx="87.9566" ry="87.9566"/>
<text text-anchor="middle" x="1400.6125" y="-637.3279" font-family="Times,serif" font-size="14.00" fill="#000000">  #11[SugarToken]</text>
</g>
<!-- 0&#45;&gt;11 -->
<g id="edge8" class="edge">
<title>0-&gt;11</title>
<path fill="none" stroke="#000000" d="M967.8713,-854.0908C1041.5518,-848.8373 1195.9345,-829.8176 1303.6125,-761.1404 1319.3036,-751.1327 1333.6333,-737.7237 1346.1818,-723.5031"/>
<polygon fill="#000000" stroke="#000000" points="1349.1481,-725.4182 1352.9673,-715.5357 1343.8188,-720.8795 1349.1481,-725.4182"/>
<text text-anchor="middle" x="1277.7527" y="-783.3404" font-family="Times,serif" font-size="14.00" fill="#000000">[|] ]</text>
</g>
<!-- 12 -->
<g id="node13" class="node">
<title>12</title>
<ellipse fill="none" stroke="#000000" cx="1594.6125" cy="-641.5279" rx="83.9576" ry="83.9576"/>
<ellipse fill="none" stroke="#000000" cx="1594.6125" cy="-641.5279" rx="87.9566" ry="87.9566"/>
<text text-anchor="middle" x="1594.6125" y="-637.3279" font-family="Times,serif" font-size="14.00" fill="#000000">  #12[SugarToken]</text>
</g>
<!-- 0&#45;&gt;12 -->
<g id="edge9" class="edge">
<title>0-&gt;12</title>
<path fill="none" stroke="#000000" d="M968.0219,-852.9577C1084.553,-843.7545 1406.9816,-814.0459 1497.6125,-761.1404 1513.7828,-751.7011 1528.3649,-738.4751 1541.0178,-724.2404"/>
<polygon fill="#000000" stroke="#000000" points="1544.0127,-726.1231 1547.8465,-716.2462 1538.6902,-721.5766 1544.0127,-726.1231"/>
<text text-anchor="middle" x="1464.1724" y="-783.3404" font-family="Times,serif" font-size="14.00" fill="#000000">[|] ,</text>
</g>
<!-- 13 -->
<g id="node14" class="node">
<title>13</title>
<ellipse fill="none" stroke="#000000" cx="1788.6125" cy="-641.5279" rx="83.9576" ry="83.9576"/>
<ellipse fill="none" stroke="#000000" cx="1788.6125" cy="-641.5279" rx="87.9566" ry="87.9566"/>
<text text-anchor="middle" x="1788.6125" y="-637.3279" font-family="Times,serif" font-size="14.00" fill="#000000">  #13[SugarToken]</text>
</g>
<!-- 0&#45;&gt;13 -->
<g id="edge10" class="edge">
<title>0-&gt;13</title>
<path fill="none" stroke="#000000" d="M968.1758,-855.1331C1110.3431,-851.2906 1566.8365,-833.4648 1691.6125,-761.1404 1707.8117,-751.7509 1722.407,-738.5473 1735.0636,-724.3192"/>
<polygon fill="#000000" stroke="#000000" points="1738.0576,-726.203 1741.8935,-716.327 1732.736,-721.6554 1738.0576,-726.203"/>
<text text-anchor="middle" x="1657.3677" y="-783.3404" font-family="Times,serif" font-size="14.00" fill="#000000">[|] :</text>
</g>
<!-- 1&#45;&gt;1 -->
<g id="edge11" class="edge">
<title>1-&gt;1</title>
<path fill="none" stroke="#000000" d="M238.9906,-652.5011C250.1683,-650.2472 257.2251,-646.5894 257.2251,-641.5279 257.2251,-638.2063 254.186,-635.4892 248.9375,-633.3767"/>
<polygon fill="#000000" stroke="#000000" points="249.5662,-629.917 238.9906,-630.5547 247.6556,-636.6512 249.5662,-629.917"/>
<text text-anchor="middle" x="270.4306" y="-637.3279" font-family="Times,serif" font-size="14.00" fill="#000000">[a-z]</text>
</g>
<!-- 1&#45;&gt;1 -->
<g id="edge12" class="edge">
<title>1-&gt;1</title>
<path fill="none" stroke="#000000" d="M236.3258,-668.2676C263.49,-665.9109 283.6361,-656.9976 283.6361,-641.5279 283.6361,-628.0523 268.3492,-619.5519 246.4528,-616.0265"/>
<polygon fill="#000000" stroke="#000000" points="246.6767,-612.5279 236.3258,-614.7883 245.8271,-619.4761 246.6767,-612.5279"/>
<text text-anchor="middle" x="299.9566" y="-637.3279" font-family="Times,serif" font-size="14.00" fill="#000000">[A-Z]</text>
</g>
<!-- 2&#45;&gt;2 -->
<g id="edge13" class="edge">
<title>2-&gt;2</title>
<path fill="none" stroke="#000000" d="M484.8872,-667.9405C498.2315,-665.1602 507.8274,-656.356 507.8274,-641.5279 507.8274,-630.5227 502.5416,-622.8357 494.3605,-618.4669"/>
<polygon fill="#000000" stroke="#000000" points="495.482,-615.1511 484.8872,-615.1153 493.1472,-621.7503 495.482,-615.1511"/>
<text text-anchor="middle" x="521.8183" y="-637.3279" font-family="Times,serif" font-size="14.00" fill="#000000">[0-9]</text>
</g>
<!-- 3 -->
<g id="node4" class="node">
<title>3</title>
<ellipse fill="none" stroke="#000000" cx="420.6125" cy="-363.9612" rx="73.019" ry="73.019"/>
<text text-anchor="middle" x="420.6125" y="-359.7612" font-family="Times,serif" font-size="14.00" fill="#000000">start_double  #3</text>
</g>
<!-- 2&#45;&gt;3 -->
<g id="edge14" class="edge">
<title>2-&gt;3</title>
<path fill="none" stroke="#000000" d="M420.6125,-572.2021C420.6125,-534.3872 420.6125,-487.3028 420.6125,-447.4763"/>
<polygon fill="#000000" stroke="#000000" points="424.1126,-447.2517 420.6125,-437.2517 417.1126,-447.2517 424.1126,-447.2517"/>
<text text-anchor="middle" x="422.3625" y="-491.3154" font-family="Times,serif" font-size="14.00" fill="#000000">.</text>
</g>
<!-- 4 -->
<g id="node5" class="node">
<title>4</title>
<ellipse fill="none" stroke="#000000" cx="420.6125" cy="-103.0035" rx="99.007" ry="99.007"/>
<ellipse fill="none" stroke="#000000" cx="420.6125" cy="-103.0035" rx="103.0071" ry="103.0071"/>
<text text-anchor="middle" x="420.6125" y="-98.8035" font-family="Times,serif" font-size="14.00" fill="#000000">in_double  #4[Double]</text>
</g>
<!-- 3&#45;&gt;4 -->
<g id="edge15" class="edge">
<title>3-&gt;4</title>
<path fill="none" stroke="#000000" d="M420.6125,-290.5755C420.6125,-267.4187 420.6125,-241.2732 420.6125,-216.0169"/>
<polygon fill="#000000" stroke="#000000" points="424.1126,-216.015 420.6125,-206.0151 417.1126,-216.0151 424.1126,-216.015"/>
<text text-anchor="middle" x="434.6034" y="-228.2071" font-family="Times,serif" font-size="14.00" fill="#000000">[0-9]</text>
</g>
<!-- 4&#45;&gt;4 -->
<g id="edge16" class="edge">
<title>4-&gt;4</title>
<path fill="none" stroke="#000000" d="M521.6753,-123.6285C533.7382,-119.8785 541.6161,-113.0035 541.6161,-103.0035 541.6161,-95.9723 537.7214,-90.486 531.2157,-86.5447"/>
<polygon fill="#000000" stroke="#000000" points="532.2403,-83.173 521.6753,-82.3785 529.439,-89.588 532.2403,-83.173"/>
<text text-anchor="middle" x="555.607" y="-98.8035" font-family="Times,serif" font-size="14.00" fill="#000000">[0-9]</text>
</g>
<!-- 5&#45;&gt;5 -->
<g id="edge17" class="edge">
<title>5-&gt;5</title>
<path fill="none" stroke="#000000" d="M676.7006,-668.2997C690.3048,-665.9929 700.2982,-657.0689 700.2982,-641.5279 700.2982,-629.9936 694.7934,-622.1042 686.3932,-617.8598"/>
<polygon fill="#000000" stroke="#000000" points="687.2916,-614.4724 676.7006,-614.7561 685.1569,-621.139 687.2916,-614.4724"/>
<text text-anchor="middle" x="716.5417" y="-637.3279" font-family="Times,serif" font-size="14.00" fill="#000000">^(", \)</text>
</g>
<!-- 6 -->
<g id="node7" class="node">
<title>6</title>
<ellipse fill="none" stroke="#000000" cx="605.6125" cy="-363.9612" rx="82.809" ry="82.809"/>
<text text-anchor="middle" x="605.6125" y="-359.7612" font-family="Times,serif" font-size="14.00" fill="#000000">escape_string1  #6</text>
</g>
<!-- 5&#45;&gt;6 -->
<g id="edge18" class="edge">
<title>5-&gt;6</title>
<path fill="none" stroke="#000000" d="M600.0019,-579.1708C593.8515,-551.1929 588.8813,-517.6726 590.7219,-487.1154 591.3192,-477.1996 592.1847,-466.859 593.2023,-456.5685"/>
<polygon fill="#000000" stroke="#000000" points="596.7156,-456.6202 594.2663,-446.3124 589.753,-455.8978 596.7156,-456.6202"/>
<text text-anchor="middle" x="593.5578" y="-491.3154" font-family="Times,serif" font-size="14.00" fill="#000000">\</text>
</g>
<!-- 7 -->
<g id="node8" class="node">
<title>7</title>
<ellipse fill="none" stroke="#000000" cx="811.6125" cy="-363.9612" rx="101.3027" ry="101.3027"/>
<ellipse fill="none" stroke="#000000" cx="811.6125" cy="-363.9612" rx="105.3085" ry="105.3085"/>
<text text-anchor="middle" x="811.6125" y="-359.7612" font-family="Times,serif" font-size="14.00" fill="#000000">string_end1  #7[String]</text>
</g>
<!-- 5&#45;&gt;7 -->
<g id="edge19" class="edge">
<title>5-&gt;7</title>
<path fill="none" stroke="#000000" d="M654.7881,-588.3387C680.4215,-551.6636 715.1994,-501.9049 745.4916,-458.5641"/>
<polygon fill="#000000" stroke="#000000" points="748.429,-460.471 751.289,-450.2695 742.6915,-456.4609 748.429,-460.471"/>
<text text-anchor="middle" x="723.4678" y="-491.3154" font-family="Times,serif" font-size="14.00" fill="#000000">"</text>
</g>
<!-- 6&#45;&gt;5 -->
<g id="edge20" class="edge">
<title>6-&gt;5</title>
<path fill="none" stroke="#000000" d="M609.2033,-447.0182C610.8454,-484.9995 612.7761,-529.6582 614.3731,-566.5987"/>
<polygon fill="#000000" stroke="#000000" points="610.8855,-566.9617 614.8142,-576.8012 617.8789,-566.6593 610.8855,-566.9617"/>
<text text-anchor="middle" x="622.4107" y="-491.3154" font-family="Times,serif" font-size="14.00" fill="#000000">^(")</text>
</g>
<!-- 6&#45;&gt;5 -->
<g id="edge21" class="edge">
<title>6-&gt;5</title>
<path fill="none" stroke="#000000" d="M627.3442,-444.308C630.3671,-458.472 632.9906,-473.1512 634.6125,-487.1154 637.6754,-513.4854 635.8695,-542.4056 632.4862,-568.0163"/>
<polygon fill="#000000" stroke="#000000" points="629.0055,-567.6335 631.0632,-578.0266 635.9358,-568.6187 629.0055,-567.6335"/>
<text text-anchor="middle" x="639.4678" y="-491.3154" font-family="Times,serif" font-size="14.00" fill="#000000">"</text>
</g>
</g>
</svg>